#N canvas 352 68 1282 893 10;
#X obj 180 200 inlet master-clock(f);
#X obj 360 846 outlet;
#X obj 441 146 f;
#X obj 524 155 + 1;
#X text 376 701 immediatley read next line;
#X obj 441 46 inlet manual read;
#X text 681 785 data title;
#X text 20 19 arg1 name of text file;
#X obj 177 287 t f f, f 18;
#X obj 648 66 inlet option;
#X obj 441 171 t f f;
#X obj 508 261 list trim;
#X obj 648 88 route repoint resize reset;
#X obj 360 784 list prepend, f 43;
#X obj 722 313 list split 1, f 24;
#X obj 441 209 text get \$1, f 27;
#X obj 177 309 s \$0-clock;
#X text 390 149 count;
#X obj 578 336 s \$0-len;
#X obj 220 781 s \$0-feedback;
#X obj 331 53 r \$0-feedback;
#X msg 300 590 1;
#X obj 300 612 list append, f 64;
#X obj 300 635 route 1;
#X obj 360 806 list trim;
#X obj 804 356 list split 1, f 24;
#X obj 300 518 >=, f 21;
#X obj 300 540 sel 1;
#X obj 722 355 t b a;
#X obj 786 389 f;
#X obj 868 648 r \$0-len;
#X obj 868 670 outlet length;
#X msg 325 399 0;
#X obj 509 312 t b b b;
#X obj 391 469 t b a;
#X obj 300 698 t b a, f 9;
#X obj 441 231 route bang;
#X obj 457 402 f;
#X obj 457 424 + 1;
#X obj 475 376 r \$0-len;
#X text 537 231 filter a bang which reports the textfile is done;
#X text 585 256 trim the list prepend;
#X text 741 282 route the dummy note to trigger a reset \, and route
the length to set loop length;
#X text 924 313 take apart the list to compare the time \, store the
pther parts of the list;
#X text 460 514 greater than or equal to compare;
#X text 354 553 if yes recompose the list and send out;
#X text 935 647 length out to other objects;
#X obj 508 290 route dummy length nichts, f 31;
#X obj 631 372 s \$0-feedback;
#X connect 0 0 8 0;
#X connect 2 0 10 0;
#X connect 3 0 2 1;
#X connect 5 0 2 0;
#X connect 8 0 16 0;
#X connect 8 1 26 0;
#X connect 9 0 12 0;
#X connect 10 0 15 0;
#X connect 10 1 3 0;
#X connect 11 0 47 0;
#X connect 12 0 15 3;
#X connect 13 0 24 0;
#X connect 14 0 28 0;
#X connect 14 1 25 0;
#X connect 15 0 36 0;
#X connect 20 0 2 0;
#X connect 21 0 22 0;
#X connect 22 0 23 0;
#X connect 23 0 35 0;
#X connect 24 0 1 0;
#X connect 25 0 29 1;
#X connect 25 1 22 1;
#X connect 26 0 27 0;
#X connect 27 0 21 0;
#X connect 28 0 29 0;
#X connect 28 1 13 1;
#X connect 29 0 34 0;
#X connect 30 0 31 0;
#X connect 32 0 26 0;
#X connect 33 0 32 0;
#X connect 33 1 22 1;
#X connect 33 2 13 1;
#X connect 34 0 26 0;
#X connect 34 1 26 1;
#X connect 35 0 19 0;
#X connect 35 1 13 0;
#X connect 36 0 37 0;
#X connect 36 1 11 0;
#X connect 37 0 38 0;
#X connect 38 0 26 1;
#X connect 39 0 37 1;
#X connect 47 0 33 0;
#X connect 47 1 18 0;
#X connect 47 2 48 0;
#X connect 47 3 14 0;
