#N canvas 550 211 904 694 10;
#X declare -path seq3;
#X obj 172 252 cg-xandy, f 28;
#X obj 241 87 cg-metro 1;
#X obj 18 38 declare -path seq3;
#X obj 241 40 loadbang;
#X msg 241 62 60;
#X obj 172 183 r knob1;
#X obj 236 185 r knob2;
#X obj 667 257 cg-seq3;
#X obj 269 208 r notes;
#X obj 358 153 r aux;
#X obj 358 175 sel 1;
#X obj 358 215 tgl 15 0 empty empty empty 17 7 0 10 -262144 -1 -1 0
1;
#X obj 432 265 s led;
#N canvas 279 50 799 623 test-synth 0;
#X obj 250 440 throw~ outL;
#X obj 360 438 throw~ outR;
#X text 367 388 final gain adjustment;
#X obj 219 236 route 1 2 3 4 5 6, f 34;
#X obj 219 66 inlet;
#X obj 219 88 poly 6 1, f 10;
#X obj 219 110 pack 0 0 0;
#X obj 573 237 r knob3;
#X obj 573 259 t f f;
#X obj 573 281 *;
#X obj 554 344 lop~ 5;
#X obj 312 391 *~;
#X msg 566 402 \; screenLine3 3: Synth Vol: \$1%;
#X obj 635 354 * 100;
#X obj 635 376 i;
#X obj 542 525 writesf~ 2;
#X msg 475 466 start;
#X msg 487 490 stop;
#X obj 454 297 voice;
#X msg 552 487 open -bytes 3 yo130.wav;
#X obj 243 292 voice;
#X obj 295 272 voice;
#X obj 346 294 voice;
#X obj 192 271 voice;
#X obj 398 273 voice;
#X connect 3 0 23 0;
#X connect 3 1 20 0;
#X connect 3 2 21 0;
#X connect 3 3 22 0;
#X connect 3 4 24 0;
#X connect 3 5 18 0;
#X connect 4 0 5 0;
#X connect 5 0 6 0;
#X connect 5 1 6 1;
#X connect 5 2 6 2;
#X connect 6 0 3 0;
#X connect 7 0 8 0;
#X connect 8 0 9 0;
#X connect 8 1 9 1;
#X connect 9 0 10 0;
#X connect 9 0 13 0;
#X connect 10 0 11 1;
#X connect 11 0 0 0;
#X connect 11 0 1 0;
#X connect 11 0 15 0;
#X connect 11 0 15 1;
#X connect 13 0 14 0;
#X connect 14 0 12 0;
#X connect 16 0 15 0;
#X connect 17 0 15 0;
#X connect 18 0 11 0;
#X connect 19 0 15 0;
#X connect 20 0 11 0;
#X connect 21 0 11 0;
#X connect 22 0 11 0;
#X connect 23 0 11 0;
#X connect 24 0 11 0;
#X restore 173 353 pd test-synth;
#X connect 0 0 13 0;
#X connect 3 0 4 0;
#X connect 4 0 1 0;
#X connect 5 0 0 0;
#X connect 6 0 0 1;
#X connect 8 0 0 2;
#X connect 9 0 10 0;
#X connect 10 0 11 0;
#X connect 11 0 0 4;
#X connect 11 0 12 0;
