#N canvas 549 214 904 694 10;
#X declare -path seq3;
#X obj 172 252 cg-xandy, f 28;
#X obj 241 87 cg-metro 1;
#X obj 18 38 declare -path seq3;
#X obj 241 40 loadbang;
#X msg 241 62 60;
#X obj 159 183 r knob1;
#X obj 223 185 r knob2;
#X connect 3 0 4 0;
#X connect 4 0 1 0;
#X connect 5 0 0 0;
#X connect 6 0 0 1;
